<?xml version="1.0" encoding="utf-8"?>
<!-- Generator: Adobe Illustrator 21.1.0, SVG Export Plug-In . SVG Version: 6.00 Build 0)  -->
<svg version="1.1" id="Layer_1" xmlns="http://www.w3.org/2000/svg" xmlns:xlink="http://www.w3.org/1999/xlink" x="0px" y="0px"
	 width="16.4433594px" height="16.1318359px" viewBox="0 0 16.4433594 16.1318359"
	 style="enable-background:new 0 0 16.4433594 16.1318359;" xml:space="preserve">
<style type="text/css">
	.st0{fill:#6C6C6C;}
</style>
<g>
	<path class="st0" d="M7.1425781,12.4951172c-0.0029297,0-0.0068359,0-0.0097656,0l-2.4121094-0.0322266
		c-0.40625-0.0058594-0.734375-0.3339844-0.7402344-0.7402344L3.9482422,9.3105469
		C3.9453125,9.1083984,4.0244141,8.9130859,4.1679688,8.7705078L12.71875,0.2197266
		c0.2929688-0.2929688,0.7675781-0.2929688,1.0605469,0l2.4443359,2.4443359c0.2929688,0.2929688,0.2929688,0.7675781,0,1.0605469
		l-8.5507812,8.5507812C7.5322266,12.4160156,7.3417969,12.4951172,7.1425781,12.4951172z M5.4707031,10.9726562
		l1.3652344,0.0185547l7.796875-7.796875l-1.3837891-1.3837891l-7.796875,7.796875L5.4707031,10.9726562z"/>
	<path class="st0" d="M13.8291016,5.453125c-0.1923828,0-0.3837891-0.0732422-0.5302734-0.2197266l-2.0634766-2.0634766
		c-0.2929688-0.2929688-0.2929688-0.7675781,0-1.0605469s0.7675781-0.2929688,1.0605469,0l2.0634766,2.0634766
		c0.2929688,0.2929688,0.2929688,0.7675781,0,1.0605469C14.2128906,5.3798828,14.0214844,5.453125,13.8291016,5.453125z"/>
</g>
<path class="st0" d="M13.5078125,16.1318359H2.2089844C0.9912109,16.1318359,0,15.140625,0,13.9228516V3.0546875
	c0-1.2177734,0.9912109-2.2089844,2.2089844-2.2089844h5.6494141c0.4140625,0,0.75,0.3359375,0.75,0.75s-0.3359375,0.75-0.75,0.75
	H2.2089844C1.8183594,2.3457031,1.5,2.6640625,1.5,3.0546875v10.8681641c0,0.390625,0.3183594,0.7089844,0.7089844,0.7089844
	h11.2988281c0.390625,0,0.7089844-0.3183594,0.7089844-0.7089844V8.4882812c0-0.4140625,0.3359375-0.75,0.75-0.75
	s0.75,0.3359375,0.75,0.75v5.4345703C15.7167969,15.140625,14.7255859,16.1318359,13.5078125,16.1318359z"/>
</svg>
